<svg width="101" height="100" viewBox="0 0 101 100" fill="none" xmlns="http://www.w3.org/2000/svg">
<rect x="0.5" width="100" height="100" rx="15" fill="#1D7AFC"/>
<g clip-path="url(#clip0_1_37472)">
<path d="M63.2508 32.617C62.8812 32.617 62.5577 32.4784 62.2805 32.2012C62.0033 31.924 61.7723 31.6006 61.5875 31.2309C61.4027 30.8613 61.2641 30.4825 61.1717 30.0944C61.0793 29.7063 61.0331 29.3829 61.0331 29.1241V22.3047H61.144C61.4397 22.3047 61.7446 22.3417 62.0588 22.4156C62.3729 22.4896 62.7425 22.6651 63.1676 22.9423C63.5927 23.2195 64.1101 23.6076 64.72 24.1066C65.3298 24.6056 66.0968 25.2617 67.0208 26.0748C68.0188 26.9619 68.8042 27.7104 69.3771 28.3202C69.95 28.9301 70.3936 29.4476 70.7077 29.8726C71.0219 30.2977 71.216 30.658 71.2899 30.9537C71.3638 31.2494 71.4008 31.5082 71.4008 31.7299V32.617H63.2508ZM50.4436 63.8864C50.4436 65.9932 50.8687 67.9522 51.7188 69.7633C52.5689 71.5744 53.7332 73.1268 55.2116 74.4204H36.9157C36.2134 74.4204 35.4465 74.2171 34.6149 73.8106C33.7832 73.404 33.007 72.868 32.2863 72.2027C31.5655 71.5374 30.9649 70.7705 30.4844 69.9019C30.0039 69.0333 29.7637 68.137 29.7637 67.2129V29.4568C29.7637 28.6806 29.9485 27.8674 30.3181 27.0173C30.6877 26.1672 31.1774 25.4003 31.7873 24.7165C32.3972 24.0327 33.0902 23.4598 33.8664 22.9978C34.6426 22.5358 35.4557 22.3047 36.3059 22.3047H57.4848V29.235C57.4848 29.9373 57.5957 30.695 57.8174 31.5082C58.0392 32.3213 58.3903 33.0698 58.8708 33.7536C59.3513 34.4374 59.9612 35.0103 60.7004 35.4723C61.4397 35.9343 62.3083 36.1653 63.3062 36.1653H71.4008V51.5782C70.4028 50.9869 69.3217 50.5341 68.1574 50.2199C66.9931 49.9057 65.7826 49.7486 64.5259 49.7486C61.8647 49.7486 59.453 50.4047 57.2907 51.7168C55.1285 53.029 53.4375 54.7754 52.2178 56.9561H40.1868C39.2258 56.9561 38.4034 57.298 37.7196 57.9818C37.0358 58.6656 36.6939 59.488 36.6939 60.449C36.6939 61.41 37.0358 62.2231 37.7196 62.8884C38.4034 63.5537 39.2258 63.8864 40.1868 63.8864H50.4436ZM40.1868 43.0956C39.2258 43.0956 38.4034 43.4282 37.7196 44.0935C37.0358 44.7588 36.6939 45.572 36.6939 46.533C36.6939 47.494 37.0358 48.3164 37.7196 49.0002C38.4034 49.684 39.2258 50.0259 40.1868 50.0259H60.9776C61.9386 50.0259 62.761 49.684 63.4448 49.0002C64.1286 48.3164 64.4705 47.494 64.4705 46.533C64.4705 45.572 64.1286 44.7588 63.4448 44.0935C62.761 43.4282 61.9386 43.0956 60.9776 43.0956H40.1868ZM77.3885 74.1432C77.906 74.7716 78.1924 75.2983 78.2479 75.7233C78.3033 76.1484 78.1278 76.5827 77.7212 77.0262C77.2776 77.5437 76.7971 77.7839 76.2797 77.747C75.7622 77.71 75.2448 77.4882 74.7273 77.0816L70.0147 72.5354C69.0168 73.1637 67.9356 73.6165 66.7713 73.8937C65.6071 74.1709 64.452 74.2633 63.3062 74.1709C62.1604 74.0785 61.0423 73.7921 59.952 73.3116C58.8616 72.8311 57.8729 72.1288 56.9858 71.2048C55.9878 70.2068 55.2301 69.061 54.7127 67.7674C54.1952 66.4737 53.9365 65.1616 53.9365 63.831C53.9365 62.5003 54.1952 61.1975 54.7127 59.9223C55.2301 58.6471 55.9878 57.4921 56.9858 56.4571C57.9838 55.4592 59.1111 54.7015 60.3678 54.184C61.6245 53.6666 62.9181 53.4078 64.2487 53.4078C65.5793 53.4078 66.8822 53.6666 68.1574 54.184C69.4326 54.7015 70.5691 55.4592 71.5671 56.4571C72.4542 57.3812 73.138 58.3976 73.6185 59.5065C74.099 60.6153 74.3854 61.7519 74.4778 62.9162C74.5702 64.0805 74.4778 65.2355 74.2006 66.3813C73.9234 67.5271 73.4706 68.599 72.8423 69.597L77.3885 74.1432ZM64.3042 70.7058C65.2282 70.7058 66.0968 70.521 66.91 70.1514C67.7231 69.7818 68.4346 69.292 69.0445 68.6822C69.6543 68.0723 70.1348 67.3515 70.486 66.5199C70.8371 65.6883 71.0127 64.792 71.0127 63.831C71.0127 62.9069 70.8371 62.0291 70.486 61.1975C70.1348 60.3658 69.6543 59.6358 69.0445 59.0075C68.4346 58.3791 67.7231 57.8894 66.91 57.5383C66.0968 57.1871 65.2282 57.0116 64.3042 57.0116C63.3432 57.0116 62.4561 57.1871 61.6429 57.5383C60.8298 57.8894 60.1183 58.3791 59.5084 59.0075C58.8986 59.6358 58.4181 60.3658 58.0669 61.1975C57.7158 62.0291 57.5402 62.9069 57.5402 63.831C57.5402 64.792 57.7158 65.6883 58.0669 66.5199C58.4181 67.3515 58.8986 68.0723 59.5084 68.6822C60.1183 69.292 60.8298 69.7818 61.6429 70.1514C62.4561 70.521 63.3432 70.7058 64.3042 70.7058Z" fill="white"/>
</g>
<defs>
<clipPath id="clip0_1_37472">
<rect width="55.5556" height="55.5556" fill="white" transform="translate(22.7227 22.2222)"/>
</clipPath>
</defs>
</svg>
